<svg id="Layer_1" data-name="Layer 1" xmlns="http://www.w3.org/2000/svg" xmlns:xlink="http://www.w3.org/1999/xlink" viewBox="0 0 420.95 297.64"><defs><style>.cls-1{fill:#0f2f84;}.cls-2{fill:url(#linear-gradient);}.cls-3{fill:url(#linear-gradient-2);}.cls-4{fill:url(#linear-gradient-3);}</style><linearGradient id="linear-gradient" x1="115.83" y1="153.84" x2="135.2" y2="130.84" gradientUnits="userSpaceOnUse"><stop offset="0" stop-color="#0350f9"/><stop offset="1" stop-color="#71ccf9"/></linearGradient><linearGradient id="linear-gradient-2" x1="74.26" y1="156.24" x2="91.91" y2="133.7" xlink:href="#linear-gradient"/><linearGradient id="linear-gradient-3" x1="95.45" y1="133.84" x2="112.77" y2="155.33" gradientUnits="userSpaceOnUse"><stop offset="0" stop-color="#0350f9"/><stop offset="0.51" stop-color="#71ccf9"/><stop offset="0.67" stop-color="#51a8f9"/><stop offset="1" stop-color="#0350f9"/></linearGradient></defs><path class="cls-1" d="M103.18,105.62A36.91,36.91,0,0,0,67.6,152.31l5.54-6.78c-.08-.94-.13-1.89-.13-2.85a30,30,0,0,1,56.57-14,7.68,7.68,0,0,1,3.29-.73h4.2A36.89,36.89,0,0,0,103.18,105.62Zm36.41,30.9-6.59,8h0a30,30,0,0,1-54.78,15,7.64,7.64,0,0,1-3.53.86H70.92a36.9,36.9,0,0,0,68.67-23.92Z"/><path class="cls-2" d="M138.52,131.76,119.41,155.1l-.23.25-.17.17.15-.15-.09,0-.1,0a2.73,2.73,0,0,1-1.1.13,2.69,2.69,0,0,1-.92-.26,3,3,0,0,1-.77-.57c-.34-.35-.62-.77-.94-1.15s-.55-.68-.83-1-.71-.87-1.06-1.3a1.22,1.22,0,0,0,1.78-.11l14.74-18a3.87,3.87,0,0,1,3-1.42Z"/><path class="cls-3" d="M94.21,137.08a1.22,1.22,0,0,0-1.78.11l-14.74,18a3.88,3.88,0,0,1-3,1.42H69l19.12-23.34a3,3,0,0,1,.24-.26h0l.08,0,.1,0a3,3,0,0,1,1.11-.13,2.73,2.73,0,0,1,1.68.83c.34.35.63.77.94,1.16s.55.67.83,1Z"/><path class="cls-4" d="M119.16,155.37l-.15.15-.08.07-.27.22-.39.25-.2.11-.21.09-.16.07,0,0-.06,0h0l-.24.07-.15,0a3.11,3.11,0,0,1-.6.09h-4.4a4.15,4.15,0,0,1-1.12-.15l-.22-.07-.42-.17L110,156l-.19-.13c-.12-.09-.24-.18-.35-.28l-.17-.15a3.28,3.28,0,0,1-.31-.34l-5.2-6.35L100,144.19h0l-5.71-7,0-.06,0,0h0l-1.06-1.29c-.28-.34-.56-.67-.83-1s-.6-.81-.94-1.16a2.73,2.73,0,0,0-1.68-.83,3,3,0,0,0-1.11.13l-.1,0-.08,0,.06-.07.12-.11.13-.11.19-.15.17-.11a.67.67,0,0,1,.14-.09.83.83,0,0,1,.16-.09l.21-.11.19-.09.13-.05.06,0h0l.26-.07.14,0,.23,0,.16,0,.21,0h4.4a4.08,4.08,0,0,1,3.16,1.5l5.2,6.34h0l3.74,4.56h0l5.73,7,.09.1h0c.35.43.71.86,1.06,1.3s.56.67.83,1,.6.8.94,1.15a3,3,0,0,0,.77.57,2.69,2.69,0,0,0,.92.26,2.73,2.73,0,0,0,1.1-.13l.1,0Z"/><path class="cls-1" d="M177.66,123.87v24.84a3.05,3.05,0,0,1-3.14,2.88H160.7a3.06,3.06,0,0,1-3.15-2.88V123.87A3.06,3.06,0,0,1,160.7,121h13.82A3.06,3.06,0,0,1,177.66,123.87ZM173,126.31a.9.9,0,0,0-.87-.87h-9.1a.91.91,0,0,0-.88.87v19.95a.91.91,0,0,0,.88.87h9.1a.9.9,0,0,0,.87-.87Z"/><path class="cls-1" d="M195.12,136.29l7.78,15.3h-5.25l-5.16-10.14-5.16,10.14h-5.2l7.78-15.3L182.13,121h5.2l5.16,10.15L197.65,121h5.25Z"/><path class="cls-1" d="M207.37,121H212v30.61h-4.63Z"/><path class="cls-1" d="M232.38,143.63H223.5l-2.31,8h-4.73L225.65,121h4.59l9.18,30.61H234.7Zm-1.31-4.54L228,128.28l-3.14,10.81Z"/><path class="cls-1" d="M276.77,121v30.61h-5.24l-10.67-21.78v21.78h-4.64V121h5.12l10.8,22V121Z"/><path class="cls-1" d="M287.54,125.44v8.62h10.84v4.46H287.54v8.61H303v4.46H282.9V121H303v4.46Z"/><path class="cls-1" d="M319.86,136.29l7.78,15.3h-5.25l-5.16-10.14-5.16,10.14h-5.2l7.78-15.3L306.87,121h5.2l5.16,10.15L322.39,121h5.25Z"/><path class="cls-1" d="M346.36,143.63h-8.88l-2.31,8h-4.73L339.63,121h4.59l9.18,30.61h-4.72Zm-1.31-4.54-3.11-10.81-3.14,10.81Z"/><path class="cls-1" d="M162.15,161.11v1.35h-1.06v-.8a.22.22,0,0,0-.21-.2H159a.22.22,0,0,0-.21.2v6.49a.22.22,0,0,0,.21.2h1.86a.22.22,0,0,0,.21-.2v-.8h1.06v1.35a.76.76,0,0,1-.8.73h-2.8a.76.76,0,0,1-.8-.73v-7.59a.76.76,0,0,1,.8-.73h2.8A.76.76,0,0,1,162.15,161.11Z"/><path class="cls-1" d="M168.64,161.11v7.59a.76.76,0,0,1-.8.73h-2.79a.77.77,0,0,1-.81-.73v-7.59a.77.77,0,0,1,.81-.73h2.79A.76.76,0,0,1,168.64,161.11Zm-1.27.35h-1.86a.22.22,0,0,0-.21.2v6.49a.22.22,0,0,0,.21.2h1.86a.22.22,0,0,0,.21-.2v-6.49A.22.22,0,0,0,167.37,161.46Z"/><path class="cls-1" d="M175.91,160.38v9.05H174.5l-2.57-7v7h-1.06v-9.05h1.41l2.57,7v-7Z"/><path class="cls-1" d="M183.18,160.38v9.05h-1.41l-2.57-7v7h-1.07v-9.05h1.41l2.58,7v-7Z"/><path class="cls-1" d="M186.46,161.46v2.9h2.28v1.09h-2.28v2.9h3.34v1.08h-4.4v-9.05h4.4v1.08Z"/><path class="cls-1" d="M196.29,161.11v1.35h-1.06v-.8a.21.21,0,0,0-.2-.2h-1.87a.22.22,0,0,0-.21.2v6.49a.22.22,0,0,0,.21.2H195a.21.21,0,0,0,.2-.2v-.8h1.06v1.35a.76.76,0,0,1-.8.73H192.7a.77.77,0,0,1-.81-.73v-7.59a.77.77,0,0,1,.81-.73h2.79A.76.76,0,0,1,196.29,161.11Z"/><path class="cls-1" d="M202.44,161.46h-1.67v8H199.7v-8H198v-1.08h4.4Z"/><path class="cls-1" d="M204.31,160.38h1.06v9.05h-1.06Z"/><path class="cls-1" d="M212.64,160.38v9.05h-1.41l-2.58-7v7h-1.06v-9.05H209l2.58,7v-7Z"/><path class="cls-1" d="M219.26,161.11v1.28H218.2v-.73a.22.22,0,0,0-.21-.2h-1.86a.22.22,0,0,0-.21.2v6.49a.22.22,0,0,0,.21.2H218a.22.22,0,0,0,.21-.2v-2.7h-1.14v-1.09h2.2v4.34a.76.76,0,0,1-.8.73h-2.8a.76.76,0,0,1-.8-.73v-7.59a.76.76,0,0,1,.8-.73h2.8A.76.76,0,0,1,219.26,161.11Z"/><path class="cls-1" d="M226.32,161.46v3h2.28v1.09h-2.28v3.85h-1.06v-9.05h4.4v1.08Z"/><path class="cls-1" d="M235.93,160.38v8.32a.76.76,0,0,1-.8.73h-2.8a.76.76,0,0,1-.8-.73v-8.32h1.06v7.77a.22.22,0,0,0,.21.2h1.86a.22.22,0,0,0,.21-.2v-7.77Z"/><path class="cls-1" d="M242.2,161.46h-1.67v8h-1.06v-8H237.8v-1.08h4.4Z"/><path class="cls-1" d="M248.47,160.38v8.32a.76.76,0,0,1-.8.73h-2.79a.76.76,0,0,1-.8-.73v-8.32h1.06v7.77a.21.21,0,0,0,.2.2h1.87a.21.21,0,0,0,.2-.2v-7.77Z"/><path class="cls-1" d="M255.1,161.11v3.29a.68.68,0,0,1-.55.67.65.65,0,0,1,.55.65v3.71H254v-3.59a.21.21,0,0,0-.21-.22h-2.07v3.81H250.7v-9.05h3.59A.77.77,0,0,1,255.1,161.11Zm-1.06.55a.22.22,0,0,0-.21-.2h-2.07v3.07h2.07a.22.22,0,0,0,.21-.22Z"/><path class="cls-1" d="M258.38,161.46v2.9h2.28v1.09h-2.28v2.9h3.34v1.08h-4.4v-9.05h4.4v1.08Z"/><path class="cls-1" d="M268.21,161.11v1.35h-1.06v-.8a.22.22,0,0,0-.21-.2h-1.86a.22.22,0,0,0-.21.2v2.51a.21.21,0,0,0,.21.19h2.33a.77.77,0,0,1,.8.74v3.6a.76.76,0,0,1-.8.73h-2.8a.76.76,0,0,1-.8-.73v-1.35h1.06v.8a.22.22,0,0,0,.21.2h1.86a.22.22,0,0,0,.21-.2v-2.51a.21.21,0,0,0-.21-.19h-2.33a.77.77,0,0,1-.8-.74v-3.6a.76.76,0,0,1,.8-.73h2.8A.76.76,0,0,1,268.21,161.11Z"/><path class="cls-1" d="M270.32,168h1.1l-.7,2.58h-.86Z"/><path class="cls-1" d="M281.34,161.11v1.35h-1.06v-.8a.22.22,0,0,0-.21-.2H278.2a.21.21,0,0,0-.2.2v6.49a.21.21,0,0,0,.2.2h1.87a.22.22,0,0,0,.21-.2v-.8h1.06v1.35a.76.76,0,0,1-.8.73h-2.8a.76.76,0,0,1-.8-.73v-7.59a.76.76,0,0,1,.8-.73h2.8A.76.76,0,0,1,281.34,161.11Z"/><path class="cls-1" d="M287.83,161.11v3.29a.67.67,0,0,1-.54.67.64.64,0,0,1,.54.65v3.71h-1.06v-3.59a.21.21,0,0,0-.21-.22h-2.07v3.81h-1.06v-9.05H287A.76.76,0,0,1,287.83,161.11Zm-1.06.55a.22.22,0,0,0-.21-.2h-2.07v3.07h2.07a.22.22,0,0,0,.21-.22Z"/><path class="cls-1" d="M293.25,167.08h-1.92l-.5,2.35H289.7l2.07-9.05h1l2.07,9.05h-1.13ZM293,166l-.72-3.38-.73,3.38Z"/><path class="cls-1" d="M297.81,161.46v3h2.28v1.09h-2.28v3.85h-1.06v-9.05h4.4v1.08Z"/><path class="cls-1" d="M307.07,161.46H305.4v8h-1.06v-8h-1.67v-1.08h4.4Z"/><path class="cls-1" d="M309,160.38H310v9.05H309Z"/><path class="cls-1" d="M317.28,160.38v9.05h-1.41l-2.58-7v7h-1.06v-9.05h1.41l2.57,7v-7Z"/><path class="cls-1" d="M323.9,161.11v1.28h-1.06v-.73a.22.22,0,0,0-.21-.2h-1.86a.22.22,0,0,0-.21.2v6.49a.22.22,0,0,0,.21.2h1.86a.22.22,0,0,0,.21-.2v-2.7H321.7v-1.09h2.2v4.34a.76.76,0,0,1-.8.73h-2.8a.76.76,0,0,1-.8-.73v-7.59a.76.76,0,0,1,.8-.73h2.8A.76.76,0,0,1,323.9,161.11Z"/><path class="cls-1" d="M334,161.46h-1.67v8h-1.06v-8h-1.67v-1.08H334Z"/><path class="cls-1" d="M336.88,161.46v2.9h2.28v1.09h-2.28v2.9h3.34v1.08h-4.4v-9.05h4.4v1.08Z"/><path class="cls-1" d="M346.71,161.11v1.35h-1.06v-.8a.22.22,0,0,0-.21-.2h-1.86a.22.22,0,0,0-.21.2v6.49a.22.22,0,0,0,.21.2h1.86a.22.22,0,0,0,.21-.2v-.8h1.06v1.35a.76.76,0,0,1-.8.73h-2.8a.76.76,0,0,1-.8-.73v-7.59a.76.76,0,0,1,.8-.73h2.8A.76.76,0,0,1,346.71,161.11Z"/><path class="cls-1" d="M353.2,160.38v9.05h-1.06v-4h-2.27v4H348.8v-9.05h1.07v4h2.27v-4Z"/></svg>